<?xml version="1.0" encoding="UTF-8"?>
<svg width="500px" height="101px" viewBox="0 0 500 101" version="1.1" xmlns="http://www.w3.org/2000/svg" xmlns:xlink="http://www.w3.org/1999/xlink">
    <title>编组 2</title>
    <g id="页面-1" stroke="none" stroke-width="1" fill="none" fill-rule="evenodd">
        <g id="Yatinova-logo" transform="translate(0.000000, -227.000000)" fill-rule="nonzero">
            <g id="编组-2" transform="translate(0.000000, 227.000000)">
                <path d="M54.9170124,98 L54.9170124,49.6255319 L86,0 L60.3070539,0 L43.3568465,29.3304965 L42.6431535,29.3304965 L25.6929461,0 L0,0 L31.6182573,49.6255319 L31.6182573,98 L54.9170124,98 Z M136,97.9999904 L136,41.9391481 C135.903762,39.0993915 134.001178,33.927973 130.225904,30.191794 C126.450631,26.455615 120.338583,24.9994373 116.874016,24.9994373 L87,24.9994373 L77,42.7484787 L113.233596,42.7484787 C115.442735,42.7484787 117.233596,44.5393397 117.233596,46.7484787 L117.233596,51.9716024 L117.233596,51.9716024 L97,51.9716024 C84.8497355,51.9716024 75,61.8213379 75,73.9716024 L75,75.9999904 C75,88.1502549 84.8497355,97.9999904 97,97.9999904 L136,97.9999904 L136,97.9999904 Z M116,80 L99,80 C96.2385763,80 94,77.7614237 94,75 C94,72.2385763 96.2385763,70 99,70 L116,70 L116,70 L116,80 Z M212,98 L212,79.8223801 L184.919094,79.8223801 C180.500816,79.8223801 176.919094,76.2406581 176.919094,71.8223801 L176.919094,47.4138544 L176.919094,47.4138544 L190,47.4138544 L190,27.946714 L176.919094,27.946714 L176.919094,8 L158.271845,8 L158.271845,27.946714 L137,27.946714 L147,47.4138544 L158.271845,47.4138544 L158.271845,73 C158.271845,86.8071187 169.464726,98 183.271845,98 L212,98 L212,98 Z M223,98 L223,34 L203,34 L203,98 L223,98 Z" id="Yatinova" fill="#1C67C4"></path>
                <path d="M341,25 C357.016258,25 370,37.9837423 370,54 L370,72 C370,88.0162577 357.016258,101 341,101 L337,101 C320.983742,101 308,88.0162577 308,72 L308,54 C308,37.9837423 320.983742,25 337,25 L341,25 Z M390.548077,25 L407.177885,63.8985801 L407.822115,63.8985801 L420.395434,36.1566876 C423.474248,29.3635615 430.242734,25 437.700995,25 L437.700995,25 L480.874016,24.9994373 C484.338583,24.9994373 490.450631,26.455615 494.225904,30.191794 C497.893313,33.821225 499.793514,38.8050535 499.987326,41.690118 L500,41.9391481 L500,97.9999904 L461,97.9999904 C448.971238,97.9999904 439.197225,88.3462646 439.002947,76.3638006 L439,75.9999904 L439,73.9716024 C439,61.9428406 448.653726,52.1688272 460.63619,51.9745498 L461,51.9716024 L481.233596,51.9716024 L481.233596,46.7484787 C481.233596,44.6062833 479.549627,42.8573998 477.433236,42.753374 L477.233596,42.7484787 L446.622,42.7484373 L443.904577,43.0958817 C440.875546,43.4825889 438.256593,45.3770995 436.936963,48.1156172 L436.809364,48.3922577 L416.513336,94.4207758 C415.554103,96.5961795 413.40086,98 411.023359,98 L411.023359,98 L404.032302,98 C401.626555,98 399.453413,96.563047 398.511403,94.3493998 L398.511403,94.3493998 L369,25 L390.548077,25 Z M283.102703,28 C287.972973,28 291.673423,29.372549 294.204054,32.1176471 C296.734685,34.8627451 298,38.6490872 298,43.4766734 L298,43.4766734 L298,98 L279.951351,98 L279.951351,53.8904665 C279.951351,49.4721885 276.369629,45.8904665 271.951351,45.8904665 L271.951351,45.8904665 L255.191892,45.8904665 L255.191892,98 L237,98 L237,28 Z M339,43 C332.474543,43 327.165607,48.2085444 327.0038,54.6950252 L327,55 L327,71 C327,77.627417 332.372583,83 339,83 C345.525457,83 350.834393,77.7914556 350.9962,71.3049748 L351,71 L351,55 C351,48.372583 345.627417,43 339,43 Z M480,70 L463,70 C460.238576,70 458,72.2385763 458,75 C458,77.6887547 460.122307,79.8818181 462.78311,79.9953805 L463,80 L480,80 L480,70 Z" id="形状结合" fill="#15C7C9"></path>
                <path d="M223,17.9999803 L223,7.9999803 L223,7.9999803 L211,7.9999803 C206.581722,7.9999803 203,11.5817023 203,15.9999803 L203,25.9999803 L203,25.9999803 L215,25.9999803 C219.418278,25.9999803 223,22.4182583 223,17.9999803 Z" id="路径" fill="#FFB42C"></path>
            </g>
        </g>
    </g>
</svg>